<svg xmlns="http://www.w3.org/2000/svg" viewBox="0 0 200 80" width="200" height="80" role="img" aria-label="紅白あわじ結び（10本）">
  <rect width="200" height="80" fill="#fafaf9"/>
  <g fill="none" stroke-width="2.2" stroke-linecap="round">
    <path d="M10 22 Q60 22 86 40" stroke="#dc2626"/>
    <path d="M10 30 Q60 30 86 40" stroke="#dc2626"/>
    <path d="M10 38 Q60 38 86 40" stroke="#dc2626"/>
    <path d="M10 42 Q60 42 86 40" stroke="#b91c1c"/>
    <path d="M10 50 Q60 50 86 40" stroke="#dc2626"/>
    <path d="M114 40 Q140 22 190 22" stroke="#52525b"/>
    <path d="M114 40 Q140 30 190 30" stroke="#52525b"/>
    <path d="M114 40 Q140 38 190 38" stroke="#52525b"/>
    <path d="M114 40 Q140 42 190 42" stroke="#3f3f46"/>
    <path d="M114 40 Q140 50 190 50" stroke="#52525b"/>
  </g>
  <g fill="none" stroke="#7f1d1d" stroke-width="3">
    <path d="M86 40 C92 28 108 28 114 40 C108 52 92 52 86 40 Z"/>
    <path d="M92 34 L108 46"/>
    <path d="M92 46 L108 34"/>
  </g>
</svg>
