<svg xmlns="http://www.w3.org/2000/svg" viewBox="0 0 200 80" width="200" height="80" role="img" aria-label="紅白蝶結び（7本）">
  <rect width="200" height="80" fill="#fafaf9"/>
  <g fill="none" stroke-width="2.4" stroke-linecap="round">
    <path d="M10 26 Q70 26 90 40" stroke="#dc2626"/>
    <path d="M10 36 Q70 36 90 40" stroke="#dc2626"/>
    <path d="M10 46 Q70 46 90 40" stroke="#dc2626"/>
    <path d="M10 56 Q70 56 90 40" stroke="#b91c1c"/>
    <path d="M110 40 Q130 26 190 26" stroke="#52525b"/>
    <path d="M110 40 Q130 36 190 36" stroke="#52525b"/>
    <path d="M110 40 Q130 46 190 46" stroke="#52525b"/>
  </g>
  <g fill="none" stroke="#dc2626" stroke-width="3">
    <path d="M90 40 C68 14 68 66 90 40 Z"/>
    <path d="M110 40 C132 14 132 66 110 40 Z"/>
  </g>
  <line x1="97" y1="38" x2="103" y2="42" stroke="#7f1d1d" stroke-width="2"/>
</svg>
